<?xml version="1.0" encoding="UTF-8" standalone="no"?><!DOCTYPE svg PUBLIC "-//W3C//DTD SVG 1.1//EN" "http://www.w3.org/Graphics/SVG/1.1/DTD/svg11.dtd"><svg width="100%" height="100%" viewBox="0 0 1285 1590" version="1.1" xmlns="http://www.w3.org/2000/svg" xmlns:xlink="http://www.w3.org/1999/xlink" xml:space="preserve" xmlns:serif="http://www.serif.com/" style="fill-rule:evenodd;clip-rule:evenodd;stroke-linejoin:round;stroke-miterlimit:2;"><g><g><path d="M299.764,661.081l5.071,8.733l0,265.34l299.196,184.363l4.759,8.522l0,445.986l-18.947,10.787l-577.166,-342.648l-4.911,-8.626l0,-717.598l18.669,-10.841l273.329,155.982Zm-254.498,556.82l526.024,312.286l0,-386.798l-299.196,-184.362l-4.759,-8.523l0,-264.753l-222.069,-126.729l0,658.879Z"/><g><path d="M739.294,1026.21l1.03,0.085l1.024,0.143l1.014,0.198l1.001,0.254l0.986,0.309l0.968,0.363l0.946,0.415l0.922,0.467l0.894,0.517l0.865,0.566l0.832,0.612l0.798,0.657l0.76,0.7l0.72,0.741l0.678,0.78l0.635,0.815l0.588,0.85l0.541,0.88l0.491,0.909l0.441,0.935l0.388,0.957l0.335,0.978l0.281,0.994l0.226,1.009l0.169,1.019l0.114,1.027l0.056,1.032l0,1.033l-0.058,1.032l-0.114,1.027l-0.17,1.019l-0.227,1.008l-0.281,0.994l-0.336,0.977l-0.389,0.957l-0.442,0.935l-0.492,0.908l-0.541,0.88l-0.589,0.849l-0.635,0.815l-0.679,0.779l-0.721,0.741l-0.761,0.699l-0.798,0.657l-0.832,0.611l-0.866,0.565l-143.021,87.835l-0.895,0.516l-0.922,0.467l-0.946,0.414l-0.968,0.362l-0.986,0.308l-1.002,0.253l-1.014,0.198l-1.024,0.142l-1.03,0.085l-1.033,0.028l-1.032,-0.029l-1.03,-0.086l-1.024,-0.142l-1.014,-0.199l-1.001,-0.254l-0.986,-0.309l-0.968,-0.362l-0.946,-0.416l-0.922,-0.467l-0.894,-0.517l-0.865,-0.565l-0.832,-0.613l-0.798,-0.657l-0.76,-0.7l-0.72,-0.741l-0.678,-0.779l-0.635,-0.816l-0.588,-0.849l-0.541,-0.881l-0.491,-0.909l-0.441,-0.935l-0.388,-0.957l-0.335,-0.977l-0.281,-0.995l-0.226,-1.008l-0.169,-1.02l-0.114,-1.027l-0.056,-1.031l0,-1.034l0.058,-1.031l0.114,-1.027l0.17,-1.019l0.227,-1.009l0.281,-0.994l0.336,-0.977l0.389,-0.957l0.442,-0.934l0.492,-0.909l0.541,-0.88l0.589,-0.849l0.635,-0.815l0.679,-0.779l0.721,-0.74l0.761,-0.7l0.798,-0.656l0.832,-0.612l0.866,-0.565l143.021,-87.835l0.895,-0.516l0.922,-0.466l0.946,-0.415l0.968,-0.362l0.986,-0.308l1.002,-0.253l1.014,-0.198l1.024,-0.141l1.03,-0.085l1.033,-0.028l1.032,0.029Z"/><path d="M443.395,851.926l0.993,0.101l0.987,0.153l0.977,0.206l0.964,0.258l0.95,0.308l0.931,0.359l0.911,0.408l0.889,0.455l0.862,0.502l0.835,0.548l0.805,0.591l0.772,0.633l0.737,0.673l0.7,0.712l0.661,0.747l0.621,0.782l0.578,0.814l0.534,0.844l0.488,0.87l0.442,0.896l0.393,0.917l0.343,0.938l0.293,0.954l0.243,0.968l0.19,0.98l0.137,0.989l0.085,0.995l0.032,0.997l-0.021,0.999l-0.074,0.995l-0.128,0.99l-0.179,0.982l-0.232,0.971l-0.283,0.957l-0.334,0.941l-0.383,0.922l-0.432,0.9l-0.479,0.876l-0.525,0.849l-0.57,0.82l-0.612,0.788l-0.653,0.755l-0.693,0.719l-0.73,0.681l-0.765,0.641l-0.798,0.6l-0.829,0.556l-0.857,0.511l-133.72,75l-0.884,0.465l-0.907,0.418l-0.927,0.368l-0.946,0.319l-0.962,0.267l-0.975,0.217l-0.984,0.164l-0.992,0.111l-0.997,0.058l-0.998,0.006l-0.997,-0.048l-0.994,-0.101l-0.986,-0.154l-0.977,-0.205l-0.964,-0.258l-0.95,-0.308l-0.931,-0.359l-0.912,-0.408l-0.888,-0.455l-0.863,-0.503l-0.834,-0.547l-0.805,-0.591l-0.772,-0.633l-0.737,-0.673l-0.7,-0.712l-0.661,-0.748l-0.621,-0.782l-0.578,-0.813l-0.534,-0.844l-0.488,-0.87l-0.442,-0.896l-0.393,-0.918l-0.343,-0.937l-0.294,-0.954l-0.242,-0.969l-0.19,-0.98l-0.137,-0.988l-0.085,-0.995l-0.032,-0.998l0.021,-0.998l0.074,-0.995l0.128,-0.99l0.179,-0.982l0.232,-0.971l0.283,-0.958l0.334,-0.94l0.383,-0.922l0.432,-0.9l0.479,-0.876l0.525,-0.849l0.57,-0.82l0.612,-0.788l0.653,-0.755l0.693,-0.719l0.73,-0.681l0.765,-0.641l0.798,-0.6l0.829,-0.556l0.857,-0.511l133.72,-75l0.884,-0.465l0.907,-0.418l0.927,-0.368l0.946,-0.319l0.962,-0.268l0.975,-0.216l0.984,-0.164l0.992,-0.111l0.997,-0.059l0.998,-0.005l0.997,0.048Z"/><path d="M180.14,420.946l3.859,1.654l263.965,150.114l5.085,8.742l0,277.816l294.553,169.403l3.382,2.488l2.744,3.178l1.968,3.708l1.094,4.054l0.164,4.196l-0.774,4.126l-1.672,3.852l-2.488,3.382l-3.178,2.744l-3.709,1.968l-4.053,1.094l-4.196,0.164l-4.127,-0.774l-3.851,-1.673l-308.317,-177.319l-5.04,-8.713l0,-277.73l-250.088,-142.223l-3.394,-2.471l-2.76,-3.164l-1.986,-3.699l-1.113,-4.049l-0.184,-4.195l0.754,-4.13l1.653,-3.859l2.472,-3.395l3.164,-2.759l3.699,-1.986l4.049,-1.113l4.194,-0.185l4.131,0.754Z"/><path d="M31.926,508.781l3.859,1.654l263.965,150.114l5.085,8.742l0,277.815l294.553,169.404l3.383,2.488l2.744,3.177l1.968,3.709l1.093,4.054l0.164,4.195l-0.773,4.127l-1.673,3.851l-2.488,3.383l-3.177,2.744l-3.709,1.968l-4.054,1.093l-4.196,0.164l-4.126,-0.773l-3.851,-1.673l-308.318,-177.32l-5.04,-8.712l0,-277.73l-250.087,-142.223l-3.395,-2.471l-2.759,-3.164l-1.986,-3.7l-1.113,-4.048l-0.185,-4.195l0.754,-4.13l1.654,-3.859l2.471,-3.395l3.164,-2.759l3.7,-1.986l4.048,-1.113l4.195,-0.185l4.13,0.754Z"/><path d="M442.582,584.883l1.069,0.064l1.063,0.125l1.055,0.185l1.042,0.245l1.027,0.304l1.008,0.363l0.985,0.419l0.96,0.475l0.931,0.529l0.899,0.581l0.865,0.632l0.827,0.68l0.787,0.726l0.745,0.77l0.699,0.811l0.652,0.85l0.602,0.885l0.55,0.919l0.498,0.948l0.442,0.975l0.386,0.999l0.328,1.019l0.27,1.037l0.21,1.05l0.15,1.06l0.089,1.067l0.027,1.071l-0.033,1.07l-0.094,1.067l-0.155,1.059l-0.216,1.049l-0.275,1.035l-0.333,1.018l-0.391,0.997l-0.447,0.973l-0.503,0.945l-0.555,0.916l-0.607,0.883l-0.656,0.846l-0.703,0.807l-0.748,0.766l-0.791,0.722l-0.831,0.676l-0.868,0.627l-0.902,0.577l-0.934,0.524l-0.962,0.47l-155.913,70.724l-0.988,0.415l-1.009,0.357l-1.028,0.299l-1.044,0.24l-1.056,0.18l-1.064,0.119l-1.069,0.058l-1.071,-0.002l-1.069,-0.064l-1.063,-0.125l-1.055,-0.185l-1.042,-0.245l-1.027,-0.305l-1.008,-0.362l-0.985,-0.419l-0.96,-0.475l-0.931,-0.529l-0.899,-0.582l-0.865,-0.631l-0.827,-0.68l-0.787,-0.726l-0.745,-0.77l-0.699,-0.811l-0.652,-0.85l-0.602,-0.885l-0.551,-0.919l-0.497,-0.948l-0.442,-0.975l-0.386,-0.999l-0.329,-1.02l-0.269,-1.036l-0.21,-1.05l-0.15,-1.06l-0.089,-1.067l-0.028,-1.071l0.034,-1.07l0.094,-1.067l0.155,-1.059l0.215,-1.049l0.275,-1.035l0.334,-1.018l0.391,-0.997l0.447,-0.973l0.502,-0.946l0.556,-0.915l0.606,-0.883l0.656,-0.846l0.704,-0.808l0.748,-0.766l0.791,-0.722l0.831,-0.675l0.867,-0.628l0.903,-0.576l0.934,-0.525l0.962,-0.47l155.913,-70.723l0.987,-0.415l1.01,-0.357l1.028,-0.299l1.044,-0.24l1.055,-0.18l1.064,-0.119l1.07,-0.059l1.071,0.003Z"/><path d="M176.268,420.212l1.046,0.116l1.037,0.174l1.026,0.232l1.011,0.289l0.993,0.345l0.973,0.401l0.948,0.454l0.922,0.507l0.891,0.558l0.859,0.606l0.824,0.655l0.786,0.699l0.745,0.742l0.702,0.783l0.658,0.821l0.61,0.856l0.561,0.89l0.511,0.919l0.458,0.947l0.405,0.971l0.349,0.992l0.293,1.01l0.236,1.024l0.179,1.037l0.12,1.045l0.061,1.05l0.002,1.052l-0.057,1.05l-0.116,1.045l-0.174,1.037l-0.232,1.026l-0.289,1.011l-0.345,0.994l-0.401,0.972l-0.454,0.949l-0.507,0.921l-0.558,0.892l-0.607,0.859l-0.654,0.824l-0.699,0.785l-0.742,0.745l-0.783,0.703l-0.821,0.657l-0.856,0.611l-0.89,0.561l-148.213,87.835l-0.92,0.51l-0.947,0.459l-0.97,0.404l-0.992,0.349l-1.01,0.294l-1.025,0.236l-1.037,0.178l-1.045,0.12l-1.05,0.061l-1.051,0.002l-1.051,-0.057l-1.045,-0.115l-1.037,-0.174l-1.026,-0.232l-1.011,-0.289l-0.994,-0.346l-0.972,-0.4l-0.949,-0.455l-0.921,-0.507l-0.892,-0.557l-0.859,-0.607l-0.823,-0.654l-0.786,-0.699l-0.745,-0.743l-0.703,-0.782l-0.657,-0.821l-0.61,-0.857l-0.562,-0.889l-0.51,-0.92l-0.459,-0.946l-0.404,-0.971l-0.349,-0.992l-0.294,-1.01l-0.236,-1.025l-0.178,-1.037l-0.12,-1.045l-0.061,-1.05l-0.002,-1.051l0.057,-1.051l0.115,-1.045l0.174,-1.037l0.232,-1.026l0.289,-1.011l0.346,-0.994l0.4,-0.972l0.455,-0.949l0.507,-0.921l0.557,-0.892l0.607,-0.859l0.654,-0.823l0.699,-0.786l0.743,-0.745l0.782,-0.703l0.821,-0.657l0.857,-0.61l0.889,-0.562l148.214,-87.835l0.919,-0.51l0.947,-0.458l0.971,-0.405l0.992,-0.349l1.01,-0.293l1.025,-0.237l1.036,-0.178l1.045,-0.12l1.05,-0.061l1.052,-0.002l1.05,0.057Z"/><path d="M599.405,1114.48l3.963,1.386l3.556,2.234l2.968,2.969l2.234,3.555l1.387,3.963l0.47,4.173l0,430.36l-0.47,4.172l-1.387,3.963l-2.234,3.555l-2.968,2.969l-3.556,2.234l-3.963,1.387l-4.172,0.47l-4.172,-0.47l-3.963,-1.387l-3.555,-2.234l-2.969,-2.969l-2.234,-3.555l-1.387,-3.963l-0.47,-4.172l0,-430.36l0.47,-4.173l1.387,-3.963l2.234,-3.555l2.969,-2.969l3.555,-2.234l3.963,-1.386l4.172,-0.47l4.172,0.47Z"/><path d="M739.256,1456.16l1.03,0.084l1.024,0.14l1.015,0.197l1.002,0.252l0.986,0.307l0.969,0.36l0.946,0.414l0.923,0.465l0.896,0.515l0.866,0.564l0.833,0.61l0.799,0.656l0.761,0.699l0.722,0.739l0.68,0.778l0.636,0.815l0.59,0.848l0.543,0.879l0.493,0.908l0.442,0.934l0.391,0.957l0.337,0.976l0.283,0.994l0.227,1.008l0.172,1.019l0.115,1.027l0.059,1.031l0.002,1.034l-0.056,1.032l-0.112,1.027l-0.168,1.019l-0.224,1.009l-0.28,0.995l-0.334,0.977l-0.387,0.958l-0.439,0.936l-0.491,0.909l-0.539,0.881l-0.588,0.85l-0.633,0.817l-0.678,0.78l-0.719,0.742l-0.759,0.701l-0.796,0.658l-0.832,0.613l-0.864,0.567l-143.021,88.235l-0.894,0.519l-0.921,0.468l-0.946,0.416l-0.967,0.364l-0.986,0.31l-1.001,0.255l-1.014,0.2l-1.023,0.144l-1.03,0.087l-1.032,0.03l-1.033,-0.027l-1.03,-0.083l-1.024,-0.141l-1.014,-0.196l-1.003,-0.252l-0.986,-0.307l-0.969,-0.361l-0.946,-0.413l-0.923,-0.465l-0.896,-0.516l-0.866,-0.563l-0.833,-0.611l-0.799,-0.656l-0.761,-0.698l-0.722,-0.74l-0.68,-0.778l-0.636,-0.814l-0.59,-0.848l-0.543,-0.88l-0.493,-0.908l-0.442,-0.933l-0.391,-0.957l-0.337,-0.977l-0.283,-0.994l-0.227,-1.008l-0.172,-1.018l-0.115,-1.027l-0.059,-1.032l-0.002,-1.033l0.056,-1.032l0.112,-1.027l0.168,-1.02l0.224,-1.008l0.28,-0.995l0.334,-0.978l0.387,-0.958l0.44,-0.935l0.49,-0.91l0.539,-0.881l0.588,-0.85l0.633,-0.816l0.678,-0.781l0.719,-0.741l0.759,-0.701l0.796,-0.659l0.832,-0.613l0.864,-0.567l143.021,-88.235l0.894,-0.518l0.921,-0.468l0.946,-0.417l0.967,-0.364l0.986,-0.31l1.001,-0.255l1.014,-0.2l1.023,-0.143l1.03,-0.087l1.033,-0.03l1.032,0.026Z"/><path d="M742.426,1026.65l3.963,1.387l3.555,2.233l2.969,2.969l2.234,3.555l1.387,3.963l0.47,4.173l0,430.36l-0.47,4.172l-1.387,3.963l-2.234,3.555l-2.969,2.969l-3.555,2.234l-3.963,1.387l-4.172,0.47l-4.172,-0.47l-3.963,-1.387l-3.555,-2.234l-2.969,-2.969l-2.234,-3.555l-1.387,-3.963l-0.47,-4.172l0,-430.36l0.47,-4.173l1.387,-3.963l2.234,-3.555l2.969,-2.969l3.555,-2.233l3.963,-1.387l4.172,-0.47l4.172,0.47Z"/></g><g><path d="M742.426,699.659l3.963,1.386l3.555,2.234l2.969,2.969l2.234,3.555l1.387,3.963l0.47,4.172l0,756.951l-0.47,4.172l-1.387,3.963l-2.234,3.555l-2.969,2.969l-3.555,2.234l-3.963,1.386l-4.172,0.471l-4.172,-0.471l-3.963,-1.386l-3.555,-2.234l-2.969,-2.969l-2.234,-3.555l-1.387,-3.963l-0.47,-4.172l0,-756.951l0.47,-4.172l1.387,-3.963l2.234,-3.555l2.969,-2.969l3.555,-2.234l3.963,-1.386l4.172,-0.471l4.172,0.471Z"/><path d="M1093.32,1027.18l0,169.278l154.152,-107.969l3.688,-2.009l4.041,-1.138l4.194,-0.21l4.135,0.729l3.869,1.63l3.409,2.451l2.779,3.148l2.008,3.687l1.138,4.041l0.21,4.194l-0.729,4.135l-1.63,3.869l-2.451,3.409l-3.147,2.779l-192.98,135.164l-20.186,-10.507l0,-169.278l-100.937,70.697l0,195.6l-4.236,8.138l-201.635,141.227l-3.688,2.009l-4.041,1.137l-4.194,0.21l-4.134,-0.728l-3.87,-1.631l-3.409,-2.45l-2.779,-3.148l-2.008,-3.687l-1.138,-4.041l-0.21,-4.194l0.729,-4.135l1.63,-3.869l2.451,-3.409l3.147,-2.779l189.885,-132.997l0,-195.6l4.236,-8.138l151.514,-106.122l20.187,10.507Z"/><path d="M1276.98,365.253l0,736.009l-0.47,4.172l-1.387,3.963l-2.234,3.555l-2.968,2.969l-3.556,2.234l-3.963,1.386l-4.172,0.471l-4.172,-0.471l-3.963,-1.386l-3.555,-2.234l-2.969,-2.969l-2.234,-3.555l-1.387,-3.963l-0.47,-4.172l0,-688.606l-146.159,102.371l0,350.802l-4.236,8.138l-151.54,106.14l-20.217,-10.586l1.754,-354.096l-170.185,117.305l-3.702,1.981l-4.05,1.107l-4.195,0.179l-4.129,-0.76l-3.857,-1.659l-3.391,-2.476l-2.755,-3.169l-1.981,-3.702l-1.107,-4.05l-0.178,-4.195l0.759,-4.129l1.659,-3.857l2.476,-3.391l3.169,-2.755l209.109,-144.134l20.092,10.617l-1.753,353.716l100.758,-70.571l0,-350.801l4.236,-8.139l196.736,-137.795l20.187,10.506Z"/></g><g><path d="M246.853,358.108l4.049,1.111l3.7,1.984l494.306,341.306l3.166,2.758l2.473,3.392l1.656,3.859l0.756,4.13l-0.181,4.194l-1.111,4.05l-1.984,3.7l-2.757,3.166l-3.393,2.473l-3.858,1.657l-4.13,0.756l-4.195,-0.182l-4.049,-1.11l-3.701,-1.984l-494.305,-341.307l-3.166,-2.757l-2.474,-3.393l-1.656,-3.858l-0.756,-4.13l0.182,-4.195l1.11,-4.049l1.984,-3.7l2.758,-3.167l3.393,-2.473l3.858,-1.656l4.13,-0.756l4.195,0.181Z"/><path d="M442.419,215.513l1.192,0.153l1.18,0.228l1.163,0.304l1.141,0.377l1.115,0.45l1.084,0.52l1.048,0.589l1.008,0.654l0.964,0.718l0.916,0.778l0.864,0.835l0.809,0.889l0.751,0.939l0.689,0.985l0.624,1.027l0.557,1.065l0.488,1.098l0.416,1.128l0.344,1.152l0.268,1.171l0.194,1.186l0.116,1.197l0.04,1.201l-0.037,1.201l-0.114,1.197l-0.19,1.187l-0.266,1.172l-0.341,1.152l-0.414,1.129l-0.485,1.099l-0.555,1.067l-0.622,1.028l-0.686,0.987l-0.748,0.94l-0.807,0.891l-0.863,0.837l-0.914,0.78l-0.963,0.72l-196.691,137.545l-1.007,0.657l-1.046,0.591l-1.083,0.523l-1.113,0.452l-1.141,0.38l-1.162,0.307l-1.179,0.231l-1.192,0.155l-1.2,0.078l-1.202,0.002l-1.199,-0.076l-1.192,-0.152l-1.18,-0.229l-1.163,-0.303l-1.142,-0.378l-1.114,-0.449l-1.084,-0.521l-1.048,-0.588l-1.008,-0.655l-0.964,-0.718l-0.916,-0.778l-0.864,-0.835l-0.809,-0.889l-0.751,-0.938l-0.689,-0.985l-0.624,-1.028l-0.557,-1.064l-0.488,-1.099l-0.416,-1.127l-0.344,-1.152l-0.268,-1.172l-0.194,-1.186l-0.116,-1.196l-0.04,-1.202l0.037,-1.201l0.114,-1.197l0.19,-1.186l0.266,-1.172l0.341,-1.153l0.414,-1.128l0.485,-1.1l0.555,-1.066l0.622,-1.029l0.686,-0.987l0.748,-0.94l0.807,-0.891l0.863,-0.837l0.914,-0.78l0.962,-0.72l196.692,-137.545l1.007,-0.657l1.046,-0.591l1.083,-0.523l1.113,-0.452l1.141,-0.38l1.162,-0.306l1.179,-0.231l1.192,-0.155l1.2,-0.079l1.201,-0.001l1.2,0.075Z"/><path d="M445.951,215.67l4.044,1.132l3.69,2.003l5.559,3.881l15.709,10.969l24.405,17.042l15.01,10.483l16.639,11.622l18.086,12.633l19.353,13.52l20.437,14.278l21.34,14.912l22.061,15.417l22.6,15.796l22.959,16.049l23.135,16.176l23.129,16.175l11.506,8.048l11.437,8l11.345,7.937l11.23,7.858l11.092,7.763l10.932,7.652l10.75,7.526l10.544,7.383l10.315,7.225l10.065,7.051l9.791,6.861l9.494,6.654l0.001,0.001l9.175,6.433l0.001,0.001l8.833,6.195l0.001,0.001l8.469,5.943l0.002,0.001l8.081,5.674l0.002,0.001l7.672,5.389l0.002,0.002l7.239,5.088l0.002,0.001l3.452,2.428l3.336,2.346l3.214,2.263l0.002,0.001l3.094,2.179l2.97,2.092l2.839,2.002l0.003,0.002l2.709,1.911l0.002,0.002l2.576,1.818l0.003,0.002l2.439,1.724l0.004,0.002l2.3,1.627l0.004,0.003l2.159,1.528l0.004,0.003l2.015,1.428l0.005,0.004l1.868,1.326l0.006,0.005l1.718,1.222l0.008,0.005l1.566,1.116l0.01,0.007l1.411,1.009l0.012,0.008l1.254,0.9l0.012,0.009l0.571,0.41l0.008,0.006l0.53,0.382l0.013,0.009l0.489,0.355l0.012,0.008l0.451,0.327l0.018,0.013l0.412,0.301l0.018,0.013l0.374,0.275l0.027,0.019l0.34,0.252l0.036,0.026l0.307,0.229l0.046,0.035l0.278,0.21l0.063,0.048l0.252,0.194l0.082,0.064l0.152,0.119l0.076,0.061l0.148,0.118l0.096,0.078l0.171,0.141l0.144,0.122l0.254,0.218l0.28,0.25l0.413,0.386l0.479,0.48l0.691,0.744l0.818,1.014l1.019,1.459l1.054,1.975l1.302,3.348l0.537,4.907l-0.781,5.082l-2.256,4.845l-4.043,4.62l-6.13,3.241l-3.446,0.418l-4.198,0.035l-4.101,-0.9l-3.798,-1.79l-3.263,-2.557l0.548,0.511l0.388,0.334l0.189,0.156l0.11,0.088l0.084,0.066l-0.034,-0.026l-0.114,-0.086l-0.185,-0.138l-0.248,-0.183l-0.308,-0.226l-0.358,-0.262l-0.408,-0.295l-0.454,-0.329l-0.499,-0.36l-0.539,-0.388l-1.217,-0.872l-1.379,-0.986l-1.54,-1.098l-1.697,-1.206l-1.849,-1.314l-2,-1.417l-2.146,-1.519l-2.289,-1.619l-2.43,-1.717l-2.567,-1.812l-2.701,-1.906l-2.833,-1.997l-2.962,-2.086l-3.086,-2.174l-3.21,-2.259l-3.329,-2.342l-3.446,-2.424l-7.233,-5.083l-7.665,-5.385l-8.076,-5.669l-8.464,-5.94l-8.828,-6.192l-9.171,-6.43l-9.491,-6.653l-9.787,-6.858l-10.061,-7.048l-10.312,-7.222l-10.541,-7.381l-10.746,-7.524l-10.93,-7.65l-11.09,-7.762l-11.228,-7.856l-11.342,-7.936l-11.435,-7.999l-11.504,-8.046l-23.127,-16.173l-23.132,-16.174l-22.956,-16.047l-22.598,-15.795l-22.059,-15.416l-21.338,-14.91l-20.436,-14.277l-19.351,-13.519l-18.085,-12.633l-16.638,-11.62l-15.008,-10.482l-24.403,-17.041l-15.708,-10.968l-5.558,-3.88l-3.152,-2.774l-2.456,-3.406l-1.636,-3.867l-0.735,-4.134l0.204,-4.193l1.132,-4.044l2.003,-3.69l2.773,-3.152l3.406,-2.455l3.867,-1.636l4.134,-0.735l4.193,0.203Zm472.711,370.729l0.813,2.09l2.028,2.906l1.332,1.433l0.13,0.122l-2.624,-3.235l-1.692,-3.439l0.013,0.123Zm-1.057,-9.646l0.026,0.235l0.121,-0.55l-0.147,0.315Zm4.421,-9.495l-0.163,0.349l0.352,-0.449l-0.189,0.1Z"/><path d="M937.18,560.885l1.174,0.103l1.164,0.176l1.152,0.249l1.133,0.321l1.111,0.391l1.084,0.461l1.053,0.527l1.018,0.593l0.979,0.655l0.936,0.716l0.889,0.773l0.838,0.827l0.785,0.878l0.729,0.926l0.669,0.969l0.606,1.01l0.542,1.046l0.475,1.078l0.407,1.105l0.336,1.129l0.265,1.148l0.193,1.162l0.119,1.172l0.045,1.177l-0.029,1.177l-0.103,1.174l-0.176,1.164l-0.249,1.152l-0.321,1.133l-0.391,1.111l-0.461,1.084l-0.527,1.053l-0.593,1.018l-0.655,0.979l-0.716,0.936l-0.773,0.889l-0.827,0.838l-0.878,0.785l-0.926,0.729l-187.664,138.332l-0.97,0.669l-1.009,0.607l-1.046,0.542l-1.078,0.475l-1.105,0.406l-1.129,0.337l-1.148,0.265l-1.162,0.192l-1.172,0.119l-1.177,0.045l-1.178,-0.029l-1.173,-0.103l-1.165,-0.176l-1.151,-0.249l-1.133,-0.321l-1.111,-0.391l-1.085,-0.46l-1.053,-0.528l-1.018,-0.593l-0.978,-0.655l-0.936,-0.715l-0.889,-0.773l-0.839,-0.827l-0.785,-0.879l-0.728,-0.925l-0.669,-0.97l-0.606,-1.01l-0.542,-1.045l-0.476,-1.078l-0.406,-1.106l-0.337,-1.129l-0.265,-1.147l-0.192,-1.162l-0.119,-1.172l-0.045,-1.177l0.029,-1.178l0.103,-1.173l0.176,-1.165l0.249,-1.151l0.321,-1.134l0.391,-1.111l0.461,-1.084l0.527,-1.053l0.593,-1.018l0.655,-0.979l0.715,-0.935l0.773,-0.889l0.827,-0.839l0.879,-0.785l0.925,-0.728l187.665,-138.333l0.969,-0.669l1.01,-0.606l1.046,-0.542l1.078,-0.475l1.105,-0.407l1.129,-0.336l1.148,-0.265l1.162,-0.193l1.172,-0.119l1.177,-0.045l1.177,0.029Z"/></g><g><path d="M1085.33,489.911l3.148,2.778l2.45,3.41l1.631,3.869l0.728,4.135l-0.209,4.193l-1.138,4.042l-2.009,3.687l-2.778,3.148l-3.41,2.45l-3.869,1.631l-4.135,0.728l-4.193,-0.21l-4.042,-1.137l-3.687,-2.009l-455.022,-318.7l0,135.275l-0.47,4.172l-1.386,3.963l-2.234,3.555l-2.969,2.969l-3.555,2.234l-3.963,1.387l-4.173,0.47l-4.172,-0.47l-3.963,-1.387l-3.555,-2.234l-2.969,-2.969l-2.234,-3.555l-1.387,-3.963l-0.47,-4.172l0,-182.678l20.187,-10.507l493.848,345.895Z"/><path d="M1078.74,486.988l3.963,1.387l3.555,2.234l2.969,2.969l2.234,3.555l1.387,3.963l0.47,4.172l0,365.503l-19.904,10.576l-145.9,-98.52l-3.195,-2.724l-2.508,-3.367l-1.696,-3.841l-0.799,-4.122l0.138,-4.196l1.069,-4.061l1.945,-3.72l2.724,-3.195l3.367,-2.508l3.841,-1.697l4.122,-0.799l4.196,0.138l4.061,1.069l3.721,1.945l107.318,72.467l0,-318.948l0.47,-4.172l1.387,-3.963l2.233,-3.555l2.969,-2.969l3.555,-2.234l3.963,-1.387l4.173,-0.47l4.172,0.47Z"/><path d="M939.631,560.926l1.193,0.143l1.182,0.218l1.166,0.294l1.144,0.368l1.118,0.44l1.088,0.511l1.053,0.58l1.013,0.646l0.97,0.71l0.923,0.77l0.871,0.828l0.817,0.882l0.758,0.933l0.697,0.979l0.633,1.022l0.566,1.06l0.497,1.095l0.426,1.124l0.353,1.149l0.278,1.169l0.203,1.184l0.127,1.196l0.05,1.201l1.871,196.664l-0.027,1.202l-0.104,1.197l-0.181,1.188l-0.256,1.175l-0.331,1.155l-0.405,1.132l-0.476,1.104l-0.545,1.071l-0.614,1.033l-0.678,0.993l-0.74,0.946l-0.8,0.898l-0.855,0.844l-0.908,0.788l-0.956,0.728l-1.001,0.665l-1.042,0.6l-1.078,0.532l-1.11,0.461l-1.137,0.39l-1.159,0.316l-1.178,0.241l-1.191,0.165l-1.198,0.088l-1.202,0.012l-1.2,-0.066l-1.194,-0.142l-1.182,-0.219l-1.165,-0.294l-1.144,-0.367l-1.119,-0.441l-1.087,-0.511l-1.053,-0.58l-1.014,-0.646l-0.97,-0.71l-0.922,-0.77l-0.872,-0.828l-0.816,-0.882l-0.759,-0.933l-0.697,-0.979l-0.632,-1.022l-0.566,-1.06l-0.497,-1.094l-0.426,-1.124l-0.353,-1.149l-0.279,-1.169l-0.203,-1.185l-0.127,-1.195l-0.05,-1.201l-1.87,-196.665l0.027,-1.201l0.104,-1.198l0.18,-1.188l0.257,-1.174l0.331,-1.156l0.404,-1.132l0.476,-1.103l0.546,-1.071l0.613,-1.034l0.678,-0.992l0.741,-0.947l0.799,-0.897l0.856,-0.845l0.907,-0.788l0.957,-0.728l1.001,-0.665l1.042,-0.6l1.077,-0.531l1.11,-0.462l1.137,-0.39l1.16,-0.315l1.177,-0.241l1.191,-0.165l1.199,-0.089l1.202,-0.011l1.2,0.065Z"/><path d="M593.126,317.091l4.038,1.15l3.681,2.02l346.092,244.021l3.139,2.788l2.439,3.417l1.619,3.875l0.715,4.137l-0.223,4.193l-1.15,4.038l-2.02,3.68l-2.788,3.139l-3.417,2.44l-3.875,1.619l-4.137,0.715l-4.193,-0.223l-4.038,-1.15l-3.681,-2.02l-346.091,-244.021l-3.139,-2.789l-2.44,-3.417l-1.618,-3.874l-0.716,-4.137l0.223,-4.193l1.15,-4.038l2.02,-3.681l2.789,-3.139l3.417,-2.44l3.874,-1.618l4.137,-0.715l4.193,0.223Z"/></g><path d="M243.949,376.632l504.519,343.992l-10.214,324.305l-296.256,-174.305l0,-278l-198.049,-116.565l0,-99.427Z" style="fill:#b4ef21;"/><path d="M763.002,707.84l4.358,8.57l-10.702,339.784l-18.707,10.311l-309.755,-182.247l-4.948,-8.651l0,-272.262l-193.104,-113.654l-4.945,-8.65l0,-115.707l19.977,-10.558l517.826,353.064Zm-500.303,-242.502l193.104,113.654l4.945,8.65l0,272.259l259.761,152.833l8.894,-282.415l-466.704,-318.209l0,53.228Z"/><path d="M936.132,795.624l1.876,150l136.561,-75l-138.437,-75Z" style="fill:#b4ef21;"/><path d="M1093.29,859.44l0.064,22.261l-155.621,85.467l-18.338,-10.696l-2.143,-171.347l18.376,-11.1l157.662,85.415Zm-136.921,54.71l79.048,-43.414l-80.134,-43.414l1.086,86.828Z"/><path d="M938.008,1134.54l136.561,96.222l0,-192.198l-136.561,95.976Z" style="fill:#b4ef21;"/><path d="M1093.32,1027.17l0,214.983l-20.234,10.495l-153.833,-108.392l0.012,-19.465l153.841,-108.121l20.214,10.5Zm-122.731,107.384l85.231,60.054l0,-119.954l-85.231,59.9Z"/></g><path d="M26.517,526.734l0,718.89l563.523,317.5l0,-430.36l-301.276,-187.14l0,-271.276l-262.247,-147.614Z" style="fill:#acf3f9;"/><clipPath id="_clip1"><path d="M26.517,526.734l0,718.89l563.523,317.5l0,-430.36l-301.276,-187.14l0,-271.276l-262.247,-147.614Z"/></clipPath><g clip-path="url(#_clip1)"><path d="M289.039,1093.64l167.453,94.618l0,179.615l-43.054,-25.358l-124.399,-73.27l0,-175.605Z" style="fill:none;"/><clipPath id="_clip2"><path d="M289.039,1093.64l167.453,94.618l0,179.615l-43.054,-25.358l-124.399,-73.27l0,-175.605Z"/></clipPath><g clip-path="url(#_clip2)"><path d="M289.039,1270.05l167.453,97.826l0,-179.615l-167.453,81.789Z" style="fill:#5ee6fa;"/><path d="M471.075,1180.17l0,196.145l-14.648,8.407l-98.402,-57.486l0,0l-83.884,-49.005l0.65,-17.457l182.567,-89.17l13.717,8.566Zm-151.159,91.024l52.821,30.858l69.172,40.41l0,-130.853l-121.993,59.585Z"/><path d="M289.039,1095.62l0,174.424l152.959,-81.789l-152.959,-92.635" style="fill:#48d8ed;"/><path d="M289.523,1081.06l0.485,0.016l0.013,0.001l0.013,0.001l0.482,0.049l0.483,0.049l0.013,0.002l0.013,0.001l0.477,0.083l0.478,0.081l0.013,0.003l0.013,0.003l0.471,0.114l0.471,0.114l0.013,0.004l0.013,0.003l0.462,0.147l0.462,0.146l0.012,0.005l0.013,0.004l0.451,0.177l0.451,0.177l0.012,0.006l0.012,0.005l0.438,0.208l0.438,0.207l0.011,0.007l0.012,0.006l0.423,0.237l0.423,0.237l160.209,97.026l-0.453,16.947l-167.72,89.681l-14.174,-8.494l0,-182.686l0.016,-0.484l0.016,-0.485l0.001,-0.013l0.001,-0.013l0.049,-0.482l0.049,-0.483l0.002,-0.013l0.002,-0.013l0.082,-0.477l0.081,-0.478l0.004,-0.013l0.002,-0.013l0.115,-0.471l0.113,-0.471l0.004,-0.013l0.004,-0.013l0.146,-0.462l0.146,-0.462l0.005,-0.012l0.004,-0.013l0.178,-0.451l0.177,-0.451l0.005,-0.012l0.005,-0.012l0.208,-0.438l0.208,-0.438l0.006,-0.011l0.006,-0.012l0.237,-0.423l0.237,-0.423l0.007,-0.011l0.007,-0.011l0.266,-0.406l0.265,-0.405l0.008,-0.011l0.007,-0.011l0.293,-0.386l0.292,-0.387l0.009,-0.01l0.008,-0.01l0.318,-0.366l0.318,-0.366l0.009,-0.009l0.009,-0.01l0.343,-0.343l0.342,-0.343l0.01,-0.009l0.009,-0.009l0.365,-0.319l0.365,-0.319l0.011,-0.008l0.01,-0.009l0.386,-0.292l0.385,-0.294l0.012,-0.007l0.01,-0.008l0.405,-0.266l0.405,-0.267l0.012,-0.006l0.011,-0.007l0.422,-0.238l0.422,-0.238l0.012,-0.006l0.012,-0.006l0.437,-0.209l0.438,-0.208l0.012,-0.005l0.012,-0.006l0.451,-0.178l0.45,-0.178l0.013,-0.005l0.012,-0.004l0.462,-0.147l0.462,-0.147l0.013,-0.004l0.013,-0.004l0.47,-0.114l0.471,-0.116l0.013,-0.002l0.013,-0.003l0.478,-0.083l0.477,-0.083l0.013,-0.001l0.013,-0.003l0.482,-0.049l0.482,-0.051l0.014,0l0.013,-0.001l0.484,-0.017l0.485,-0.017l0.013,0l0.013,0l0.484,0.016Zm14.099,164.656l108.923,-58.242l-108.923,-65.966l0,124.208Z"/></g><path d="M467.1,1177.5l3.975,6.812l0,192.021l-14.693,8.398l-50.345,-29.653l-127.737,-75.235l-3.844,-6.726l0,-187.853l14.466,-8.442l178.178,100.678Zm-163.478,83.408l117.218,69.039l21.069,12.409l0,-145.59l-138.287,-78.137l0,142.279Z"/></g><path d="M299.36,663.577l3.987,6.821l0,267.117l297.601,184.856l3.676,6.611l0,442.511l-14.451,8.444l-574.255,-323.546l-3.985,-6.818l0,-731.206l14.446,-8.446l272.981,153.656Zm-258.26,573.525l534.357,301.067l0,-397.296l-297.601,-184.857l-3.675,-6.61l0,-266.532l-233.081,-131.197l0,685.425Z"/><path d="M26.517,526.734l262.247,147.614l153.234,-73.724l-267.268,-161.725l-148.213,87.835Z" style="fill:#5ee6fa;"/><path d="M177.658,428.495l275.042,166.429l-0.594,12.396l-161.126,77.521l-5.102,-0.164l-269.711,-151.815l-0.134,-12.024l155.865,-92.369l5.76,0.026Zm-130.318,98.006l241.801,136.106l131.007,-63.03l-245.474,-148.537l-127.334,75.461Z"/><path d="M288.764,674.348l0.275,271.276l152.959,-75l0,-270l-153.234,73.724Z" style="fill:#48d8ed;"/><path d="M452.415,594.868l0,278.737l-3.154,5.059l-160.824,78.856l-9.809,-6.108l-0.284,-280.058l3.196,-5.09l161.129,-77.522l9.746,6.126Zm-153.228,86.025l0.252,248.03l132.143,-64.793l0,-246.935l-132.395,63.698Z"/><path d="M308.278,945.624l133.72,-75l296.256,174.305l-143.021,84.695l-286.955,-184" style="fill:#5ee6fa;"/><path d="M444.885,860.237l303.777,178.73l0.017,11.894l-150.679,89.23l-5.904,-0.104l-289.44,-185.594l-0.242,-0.21l-0.283,-0.15l-0.835,-0.816l-0.883,-0.764l-0.173,-0.269l-0.229,-0.223l-0.571,-1.019l-0.633,-0.981l-0.09,-0.307l-0.157,-0.279l-0.261,-1.138l-0.33,-1.12l0,-0.32l-0.072,-0.312l0.07,-1.165l-0.001,-1.168l0.09,-0.307l0.019,-0.32l0.396,-1.098l0.328,-1.121l0.172,-0.269l0.109,-0.301l0.689,-0.943l0.63,-0.982l0.242,-0.21l0.189,-0.259l0.926,-0.71l0.882,-0.765l0.291,-0.134l0.254,-0.194l136.144,-76.36l5.558,0.058Zm-116.377,85.984l266.942,171.168l122.312,-72.431l-275.888,-162.321l-113.366,63.584Z"/><path d="M595.233,1129.62l-5.193,433.5l148.214,-92.5l0,-425.695l-143.021,84.695Z" style="fill:#48d8ed;"/><path d="M752.837,1036.45l0,437.943l-3.661,6.6l-158.75,99.075l-15.072,-8.478l5.343,-445.963l3.82,-6.611l153.597,-90.958l14.723,8.392Zm-143.12,101.54l-4.775,398.638l118.729,-74.098l0,-392.022l-113.954,67.482Z"/><path d="M748.468,710.78l-10.214,759.844l210.44,-128l-10.686,-207.966l136.561,-89.729l0,185.828l183.659,-129.495l0,-724.63l-183.659,128.636l0,351.188l-96.249,61.995l-42.188,27.173l1.876,-366.018l-189.54,131.174Z" style="fill:#ffff97;"/><path d="M1268.64,370.311l0,733.49l-2.338,4.51l-190.911,134.609l-11.244,-5.83l0,-172.853l-115.435,75.849l10.527,204.87l-2.684,5.076l-218.139,132.683l-10.665,-6.091l10.33,-768.51l2.376,-4.461l196.815,-136.209l11.18,5.896l-1.81,353.121l26.032,-16.768l0,0l91.473,-58.918l0,-348.055l2.353,-4.522l190.925,-133.724l11.215,5.837Zm-183.66,140.379l0,348.422l-2.543,4.663l-98.482,63.433l-47.402,30.532l-10.874,-5.967l1.805,-352.219l-168.678,116.736l-9.888,735.652l189.049,-114.989l-10.509,-204.53l2.507,-4.947l144.074,-94.666l10.941,5.903l0,171.954l162.826,-114.806l0,-699.215l-162.826,114.044Z"/><path d="M243.949,376.632l494.305,334.148l197.878,-131.174l-494.134,-337.982l-198.049,135.008Z" style="fill:#ffff97;"/><path d="M447.804,222.878l507.15,346.885l-0.145,19.957l-210.943,139.836l-11.393,-0.051l-507.255,-342.902l-0.039,-19.868l211.043,-143.866l11.582,0.009Zm-170.472,153.689l461.024,311.65l164.208,-108.855l-460.583,-315.034l-164.649,112.239Z"/><path d="M590.04,157.314l477.17,338.31l191.018,-132.808l-477.004,-342.192l-191.184,136.69Z" style="fill:#ffff97;"/><path d="M785.92,6.044l486.947,349.325l-0.112,15.108l-201.004,139.751l-9.217,-0.042l-487.062,-345.324l-0.03,-15.038l201.111,-143.787l9.367,0.007Zm-170.736,151.22l452.108,320.541l165.658,-115.176l-451.74,-324.068l-166.026,118.703Z"/><path d="M595.739,151.327l0.914,0.06l0.908,0.118l0.9,0.175l0.886,0.23l0.871,0.286l0.85,0.34l0.828,0.393l0.801,0.444l0.772,0.493l0.74,0.541l0.704,0.587l0.665,0.629l0.625,0.67l0.582,0.708l0.536,0.743l0.489,0.775l0.438,0.804l0.388,0.83l0.334,0.853l0.28,0.872l0.225,0.888l0.169,0.901l0.112,0.909l0.055,0.915l-0.003,0.916l-5.193,149.722l-0.061,0.915l-0.117,0.908l-0.175,0.899l-0.231,0.887l-0.286,0.87l-0.34,0.851l-0.392,0.828l-0.444,0.801l-0.494,0.772l-0.541,0.74l-0.586,0.704l-0.629,0.665l-0.67,0.625l-0.708,0.582l-0.743,0.536l-0.775,0.489l-0.804,0.438l-0.83,0.388l-0.853,0.334l-0.873,0.28l-0.888,0.225l-0.9,0.169l-0.909,0.112l-0.915,0.054l-0.916,-0.002l-0.914,-0.061l-0.909,-0.118l-0.899,-0.174l-0.887,-0.231l-0.87,-0.286l-0.851,-0.34l-0.828,-0.393l-0.801,-0.444l-0.772,-0.493l-0.739,-0.541l-0.704,-0.586l-0.666,-0.63l-0.625,-0.67l-0.582,-0.707l-0.536,-0.743l-0.488,-0.775l-0.439,-0.805l-0.387,-0.83l-0.335,-0.853l-0.28,-0.872l-0.225,-0.888l-0.169,-0.901l-0.112,-0.909l-0.054,-0.914l0.003,-0.917l5.192,-149.722l0.061,-0.914l0.118,-0.909l0.174,-0.899l0.231,-0.887l0.286,-0.87l0.34,-0.851l0.393,-0.828l0.444,-0.801l0.493,-0.772l0.541,-0.739l0.586,-0.704l0.63,-0.666l0.67,-0.625l0.707,-0.582l0.743,-0.536l0.775,-0.488l0.805,-0.439l0.83,-0.387l0.853,-0.335l0.872,-0.28l0.888,-0.225l0.901,-0.169l0.909,-0.112l0.914,-0.054l0.917,0.003Z"/><path d="M936.132,570.624l1.876,225l116.929,60.832l0,-360.832l-464.897,-329.723l0,179.723l5.193,0l340.899,225Z" style="fill:#b4ef21;"/><path d="M1063.03,488.592l2.325,4.5l0,369.227l-10.023,6.084l-61.897,-32.202l9.241,4.808l-18.481,-9.615l9.24,4.807l-62.797,-32.67l-3.02,-4.93l-1.854,-222.34l-333.657,-220.22l-6.379,0l-6.102,-6.102l0,-190.38l11.269,-5.823l472.135,334.856Zm-462.571,-152.001l343.585,226.772l2.485,4.572l1.845,221.339l54.677,28.445l41.471,21.576l0,-338.288l-444.063,-314.947l0,150.531Z"/></g></svg>